<svg width="24" height="24" viewBox="0 0 24 24" fill="none" xmlns="http://www.w3.org/2000/svg">
<path d="M6.78381 9.6H17.2162C18.1041 9.6 18.7121 9.60118 19.1722 9.66086C19.6152 9.71833 19.839 9.82144 19.9994 9.96876C20.1598 10.1161 20.2816 10.3303 20.3766 10.7668C20.4753 11.2201 20.5282 11.8258 20.6038 12.7105L21.2167 19.8808C21.2616 20.4061 21.2886 20.7378 21.2758 20.9809C21.264 21.2067 21.221 21.2537 21.2055 21.2705C21.1901 21.2874 21.1469 21.3342 20.9229 21.3652C20.6818 21.3986 20.349 21.4 19.8218 21.4H4.17823C3.65102 21.4 3.31816 21.3986 3.07706 21.3652C2.85309 21.3342 2.80994 21.2874 2.79448 21.2705C2.77901 21.2537 2.73605 21.2067 2.72419 20.9809C2.71143 20.7378 2.73842 20.4061 2.78332 19.8808L3.39617 12.7105C3.47178 11.8258 3.52474 11.2201 3.62338 10.7668C3.71837 10.3303 3.84016 10.1161 4.0006 9.96876C4.16105 9.82144 4.38484 9.71833 4.82784 9.66086C5.28789 9.60118 5.89588 9.6 6.78381 9.6Z" stroke="currentColor" stroke-opacity="0.95" stroke-width="1.2"/>
<path d="M8 12L8 8C8 5.79086 9.79086 4 12 4V4C14.2091 4 16 5.79086 16 8L16 12" stroke="currentColor" stroke-opacity="0.95" stroke-width="1.2" stroke-linecap="round"/>
</svg>
