<svg width="20" height="20" viewBox="0 0 20 20" fill="none" xmlns="http://www.w3.org/2000/svg">
<path fill-rule="evenodd" clip-rule="evenodd" d="M8.73966 3.15641C9.56013 2.33594 10.6729 1.875 11.8333 1.875H14.0833C14.4284 1.875 14.7083 2.15482 14.7083 2.5V5.5C14.7083 5.84518 14.4284 6.125 14.0833 6.125H11.8333C11.8001 6.125 11.7683 6.13817 11.7449 6.16161C11.7214 6.18505 11.7083 6.21685 11.7083 6.25V7.875H14.0833C14.2757 7.875 14.4574 7.96367 14.5759 8.11537C14.6943 8.26706 14.7363 8.46487 14.6896 8.65158L13.9396 11.6516C13.87 11.9298 13.62 12.125 13.3333 12.125H11.7083V17.5C11.7083 17.8452 11.4284 18.125 11.0833 18.125H8.08325C7.73807 18.125 7.45825 17.8452 7.45825 17.5V12.125H5.83325C5.48807 12.125 5.20825 11.8452 5.20825 11.5V8.5C5.20825 8.15482 5.48807 7.875 5.83325 7.875H7.45825V6.25C7.45825 5.08968 7.91919 3.97688 8.73966 3.15641ZM11.8333 3.125C11.0045 3.125 10.2096 3.45424 9.62354 4.04029C9.03749 4.62634 8.70825 5.4212 8.70825 6.25V8.5C8.70825 8.84518 8.42843 9.125 8.08325 9.125H6.45825V10.875H8.08325C8.42843 10.875 8.70825 11.1548 8.70825 11.5V16.875H10.4583V11.5C10.4583 11.1548 10.7381 10.875 11.0833 10.875H12.8453L13.2828 9.125H11.0833C10.7381 9.125 10.4583 8.84518 10.4583 8.5V6.25C10.4583 5.88533 10.6031 5.53559 10.861 5.27773C11.1188 5.01987 11.4686 4.875 11.8333 4.875H13.4583V3.125H11.8333Z" fill="#FFF8F0"/>
</svg>
