<svg width="121" height="43" viewBox="0 0 121 43" fill="none" xmlns="http://www.w3.org/2000/svg">
<path d="M17.134 22.839C17.1862 22.8121 17.224 22.7852 17.2456 22.7584C17.4923 22.5792 17.7714 22.3944 18.0811 22.203C18.3908 22.0092 18.669 21.9196 18.9166 21.9342C19.1659 21.9465 19.3109 22.1514 19.3523 22.5478C19.3325 23.1391 18.8238 23.7662 17.8254 24.4291C16.8288 25.092 15.6008 25.7225 14.1414 26.3193C12.6838 26.9173 11.2784 27.3932 9.92438 27.7482C8.57033 28.1009 7.5521 28.2577 6.87057 28.2185C6.09452 28.1177 5.52733 27.7683 5.16721 27.1703C4.80529 26.5701 4.67024 25.7762 4.76388 24.7874C4.89892 23.7191 5.28875 22.6318 5.93426 21.5266C6.57978 20.4225 7.43236 19.5513 8.49111 18.9152C9.54986 18.277 10.7256 18.0989 12.0203 18.3822C12.2264 18.4091 12.3966 18.5065 12.5316 18.6734C12.6037 18.7361 12.6667 18.8234 12.7225 18.9332C12.7801 19.0407 12.799 19.1526 12.7801 19.2691C12.7585 19.6162 12.5866 19.838 12.2652 19.9365C11.9455 20.0328 11.6358 20.0798 11.336 20.0798C11.273 20.0798 11.2064 20.0933 11.1344 20.1201C10.3178 20.2612 9.51745 20.8491 8.73239 21.8849C7.94733 22.9185 7.50798 24.0394 7.41435 25.2488C7.41435 25.7628 7.81949 26.008 8.63155 25.9834C9.44272 25.9565 10.4222 25.7505 11.5701 25.3652C12.7171 24.98 13.8074 24.5568 14.84 24.0932C15.8744 23.6307 16.6388 23.213 17.134 22.839Z" fill="#222222"/>
<path d="M32.7957 21.9879C32.9082 22.0148 32.9848 22.0585 33.0262 22.1178C33.0694 22.1749 33.1162 22.2869 33.1666 22.4538C33.2098 22.6217 33.1639 22.821 33.0298 23.054C32.8947 23.2846 32.7705 23.4694 32.6553 23.6094C31.8072 24.5982 30.816 25.1894 29.6807 25.3831C29.0271 25.4996 28.3752 25.5298 27.7252 25.4727C27.0743 25.4134 26.4333 25.2163 25.8022 24.8815C25.3484 24.5982 24.9244 24.6821 24.531 25.1323C23.7144 26.0584 22.8618 26.9452 21.9741 27.7929C21.5177 28.2173 21.0387 28.5712 20.5373 28.8545C20.0376 29.1389 19.4929 29.3002 18.9023 29.3382C17.1764 29.3002 16.4949 28.252 16.8568 26.1939C16.8766 26.1043 16.9019 26.0348 16.9325 25.9833C17.4294 24.3115 18.0866 22.8031 18.9023 21.4594C19.718 20.1156 20.7515 18.9947 22.0029 18.0955C22.8312 17.4897 23.7207 17.2579 24.6714 17.4013C24.9181 17.464 25.1558 17.5793 25.3845 17.7461C25.6627 17.9141 25.777 18.184 25.7266 18.5569C25.705 18.6733 25.66 18.7741 25.5933 18.857C25.5258 18.941 25.4565 19.0205 25.3845 19.0944C25.343 19.1604 25.289 19.2064 25.2224 19.2332C25.1549 19.2579 25.0856 19.2691 25.0135 19.2691C24.3293 19.2959 23.7405 19.5445 23.249 20.0126C22.7592 20.4818 22.3126 21.0115 21.9093 21.6027C21.4556 22.2332 21.0342 22.9274 20.6453 23.6855C20.2582 24.4447 19.9413 25.3507 19.6946 26.4044C20.6039 25.7504 21.3169 25.1009 21.8337 24.4559C21.9462 24.316 22.0606 24.1872 22.1758 24.0707C22.2667 23.9576 22.3595 23.8546 22.4531 23.7617C22.9086 23.2365 23.384 22.774 23.8792 22.3731C24.4481 21.9767 25.0108 21.7774 25.5681 21.7774C26.1272 21.7774 26.671 22.0596 27.1995 22.624C27.9215 23.4213 28.6237 23.7337 29.3062 23.5601C29.9877 23.3877 30.6242 23.0887 31.2148 22.6643C31.8144 22.2141 32.342 21.9879 32.7957 21.9879Z" fill="#222222"/>
<path d="M46.0694 22.0282C46.4601 22.1178 46.6762 22.3821 46.7176 22.8211C46.7608 23.2578 46.5807 23.699 46.1774 24.1469C45.7831 24.5747 45.405 24.9733 45.043 25.3428C44.1355 26.2689 43.1596 27.2599 42.1153 28.317C41.2987 29.1389 40.5487 30.0448 39.8645 31.0359C39.3577 31.7044 38.9804 32.4625 38.7337 33.3113C38.4646 34.4154 38.0099 35.4053 37.3689 36.281C37.0061 36.7938 36.5919 37.1074 36.1265 37.2216C35.6628 37.338 35.1776 37.3067 34.6716 37.1275C34.424 37.0491 34.2377 36.8879 34.1134 36.6438C33.9883 36.4019 33.9622 36.1253 34.0342 35.8151C34.1179 35.3403 34.2629 34.8902 34.4699 34.4669C34.7697 33.926 35.0902 33.3986 35.4315 32.8857C35.4531 32.8342 35.4837 32.7838 35.5251 32.7335C36.7135 30.8948 36.7855 29.0101 35.7412 27.0807C35.4819 26.6575 35.1974 26.2454 34.8877 25.8445C34.794 25.7045 34.6905 25.5645 34.578 25.4235C34.3925 25.1401 34.1962 24.8703 33.9874 24.6127C33.6057 24.1111 33.2329 23.5769 32.871 23.0092C31.8483 21.2242 31.9158 19.5143 33.0727 17.8805C34.0756 16.4024 35.327 15.3812 36.8251 14.8168C37.756 14.4831 38.6563 14.5839 39.526 15.1214C40.3615 15.6891 40.7486 16.5637 40.6892 17.7462C40.5956 18.5435 40.2751 19.0126 39.7277 19.1526C39.0236 19.3206 38.5222 19.0496 38.2224 18.3419C38.1287 18.0619 38.0612 17.8178 38.0207 17.6118C37.9793 17.3945 37.9217 17.2266 37.8479 17.1101C37.7758 16.9937 37.6615 16.9578 37.5057 17.0026C37.3518 17.0474 37.1042 17.1986 36.7639 17.455C36.2381 17.8436 35.7826 18.3531 35.399 18.9824C34.7796 19.9085 34.7436 20.8984 35.291 21.9521C35.4783 22.2869 35.6844 22.5949 35.9104 22.8748C36.1598 23.2242 36.3975 23.5668 36.6234 23.9005C37.079 24.4649 37.5111 25.0427 37.9199 25.634C38.3277 26.2252 38.6815 26.8613 38.9822 27.5421C39.21 27.4917 39.607 27.2263 40.1742 26.7448C40.7432 26.2611 41.3608 25.7012 42.0288 25.0651C42.696 24.4291 43.3037 23.8546 43.851 23.3406C44.3048 22.8905 44.6253 22.5814 44.8126 22.4135C44.9656 22.2735 45.1565 22.1671 45.3851 22.0954C45.6129 22.0238 45.8407 22.0014 46.0694 22.0282Z" fill="#222222"/>
<path d="M59.4949 21.9879C59.6075 22.0148 59.684 22.0585 59.7254 22.1178C59.7686 22.1749 59.8154 22.2869 59.8659 22.4538C59.9091 22.6217 59.8631 22.821 59.729 23.054C59.594 23.2846 59.4697 23.4694 59.3545 23.6094C58.5064 24.5982 57.5152 25.1894 56.3799 25.3831C55.7263 25.4996 55.0745 25.5298 54.4245 25.4727C53.7735 25.4134 53.1325 25.2163 52.5014 24.8815C52.0477 24.5982 51.6236 24.6821 51.2302 25.1323C50.4136 26.0584 49.561 26.9452 48.6734 27.7929C48.2169 28.2173 47.7379 28.5712 47.2365 28.8545C46.7368 29.1389 46.1921 29.3002 45.6015 29.3382C43.8757 29.3002 43.1941 28.252 43.5561 26.1939C43.5759 26.1043 43.6011 26.0348 43.6317 25.9833C44.1286 24.3115 44.7859 22.8031 45.6015 21.4594C46.4172 20.1156 47.4507 18.9947 48.7022 18.0955C49.5304 17.4897 50.4199 17.2579 51.3706 17.4013C51.6173 17.464 51.855 17.5793 52.0837 17.7461C52.3619 17.9141 52.4762 18.184 52.4258 18.5569C52.4042 18.6733 52.3592 18.7741 52.2925 18.857C52.225 18.941 52.1557 19.0205 52.0837 19.0944C52.0423 19.1604 51.9882 19.2064 51.9216 19.2332C51.8541 19.2579 51.7848 19.2691 51.7128 19.2691C51.0285 19.2959 50.4397 19.5445 49.9482 20.0126C49.4584 20.4818 49.0119 21.0115 48.6085 21.6027C48.1548 22.2332 47.7334 22.9274 47.3445 23.6855C46.9574 24.4447 46.6405 25.3507 46.3938 26.4044C47.3031 25.7504 48.0161 25.1009 48.5329 24.4559C48.6454 24.316 48.7598 24.1872 48.875 24.0707C48.9659 23.9576 49.0587 23.8546 49.1523 23.7617C49.6079 23.2365 50.0832 22.774 50.5784 22.3731C51.1474 21.9767 51.7101 21.7774 52.2673 21.7774C52.8264 21.7774 53.3702 22.0596 53.8987 22.624C54.6207 23.4213 55.3229 23.7337 56.0054 23.5601C56.6869 23.3877 57.3234 23.0887 57.914 22.6643C58.5136 22.2141 59.0412 21.9879 59.4949 21.9879Z" fill="#222222"/>
<path d="M93.5139 21.9521C93.7201 21.9253 93.8848 21.9611 94.0072 22.0596C94.1315 22.1559 94.1945 22.3441 94.1945 22.624C94.235 22.7673 94.1927 22.9756 94.0685 23.2466C93.946 23.5154 93.8038 23.7751 93.6435 24.026C93.4851 24.2746 93.3635 24.456 93.2798 24.5724C92.5254 25.5646 91.6935 26.2185 90.7842 26.5343C89.874 26.8479 88.8972 26.8882 87.8528 26.6553C87.3459 26.5388 86.9066 26.2857 86.5348 25.8938C86.1621 25.503 85.837 25.0237 85.5589 24.456C85.5373 24.4179 85.5165 24.3866 85.4976 24.3619C85.1753 23.7203 84.8242 23.0842 84.4425 22.4538C84.2552 22.1436 84.0761 21.988 83.9059 21.988C83.7349 21.988 83.5368 22.1302 83.3117 22.4135C82.6275 23.2108 82.0378 24.1044 81.5435 25.092C81.0682 25.9677 80.3848 26.3596 79.4945 26.27C78.8336 26.2197 78.4006 25.7953 78.1944 24.998C78.1512 24.8042 78.1296 24.6038 78.1296 24.3978C78.0792 23.3832 77.9009 23.0876 77.5966 23.5109C77.2914 23.9353 76.9889 24.5142 76.6891 25.2488C76.5757 25.5332 76.4415 25.8154 76.2858 26.0954C76.1291 26.4447 75.9698 26.7874 75.8068 27.1211C75.6502 27.4917 75.4791 27.8579 75.2919 28.2185C74.9723 28.7829 74.5284 29.0986 73.9594 29.1636C72.9151 29.28 72.3254 28.7146 72.1912 27.466C72.1498 26.3854 72.1138 25.3115 72.0832 24.2455C72.0634 23.7561 72.0436 23.26 72.022 22.7584C72.0004 22.3351 71.9896 21.8917 71.9896 21.4281C71.9392 20.6465 71.9031 19.8682 71.8815 19.0944C71.8626 18.0799 72.2399 17.5334 73.0159 17.455C73.8514 17.3655 74.3357 17.791 74.4708 18.7316C74.5644 19.5804 74.6373 20.4281 74.6905 21.2758C74.6905 21.8401 74.7382 22.1839 74.8345 22.306C74.9326 22.4292 75.029 22.456 75.1226 22.3866C75.2162 22.3149 75.3099 22.2074 75.4035 22.0641C75.4035 22.0641 75.4035 22.0529 75.4035 22.0283C75.4944 21.8849 75.5818 21.7438 75.6664 21.6028C75.8942 21.2063 76.1363 20.8402 76.3938 20.5054C77.0754 19.7708 77.8712 19.4617 78.7814 19.5782C79.5782 19.6566 80.1472 20.1325 80.4884 21.007C80.6009 21.3273 80.781 21.3721 81.0286 21.1414C81.2779 20.9085 81.612 20.6386 82.0297 20.3307C82.4492 20.0238 82.9129 19.8111 83.4198 19.6946C84.6171 19.3878 85.6399 19.773 86.488 20.8503C86.8697 21.3788 87.2415 21.9588 87.6043 22.5882C87.6349 22.6397 87.671 22.6957 87.7124 22.7584C87.806 22.9263 87.8996 23.1066 87.9933 23.3004C88.0554 23.4683 88.1319 23.6408 88.2237 23.8199C88.6073 24.4381 89.0106 24.755 89.4337 24.7695C89.8587 24.7818 90.28 24.6172 90.6978 24.2768C91.1173 23.9342 91.5233 23.5501 91.915 23.1257C92.2247 22.792 92.511 22.512 92.7756 22.2881C93.0394 22.0641 93.2852 21.9521 93.5139 21.9521Z" fill="#222222"/>
<path d="M104.445 22.0283C104.576 22.1178 104.637 22.269 104.628 22.4807C104.618 22.6934 104.567 22.8827 104.474 23.0495C103.769 24.3485 103.015 25.4996 102.208 26.5029C101.404 27.5063 100.518 28.2565 99.5507 28.7515C98.5856 29.2442 97.4773 29.3819 96.2268 29.1636C95.3886 28.9967 94.7575 28.6429 94.3326 28.102C93.9094 27.5623 93.5952 26.7975 93.3891 25.8087C93.046 24.2533 92.9677 22.6531 93.155 21.007C93.3107 20.0552 93.7861 19.5591 94.581 19.5199C95.2941 19.5199 95.6812 19.9186 95.7442 20.7159C95.7658 21.3732 95.7658 22.0227 95.7442 22.6643C95.7442 22.7539 95.7442 22.8379 95.7442 22.9151C95.7028 24.6777 95.9324 25.8837 96.4321 26.5343C96.9335 27.1827 97.588 27.3529 98.3947 27.0449C99.2014 26.7347 100.059 26.027 100.97 24.9218C101.082 24.7785 101.223 24.5859 101.394 24.344C101.567 24.0999 101.756 23.8546 101.963 23.6094C102.252 23.2365 102.489 22.9219 102.677 22.6643C103.243 21.9566 103.833 21.745 104.445 22.0283ZM94.3794 16.6846C93.7501 16.6342 93.3891 16.2098 93.2954 15.4125C93.2234 14.7944 93.2999 14.2032 93.5259 13.6388C93.7321 13.1494 94.0679 12.8146 94.5342 12.6354C94.9997 12.4563 95.439 12.5078 95.8523 12.7877C96.008 12.893 96.1197 13.0386 96.1872 13.2267C96.2538 13.4126 96.2772 13.5626 96.2556 13.6791C96.2358 15.7104 95.611 16.7115 94.3794 16.6846Z" fill="#222222"/>
<path d="M117.529 21.9879C117.642 22.0148 117.718 22.0585 117.76 22.1178C117.803 22.1749 117.85 22.2869 117.9 22.4538C117.943 22.6217 117.897 22.821 117.763 23.054C117.628 23.2846 117.504 23.4694 117.389 23.6094C116.541 24.5982 115.549 25.1894 114.414 25.3831C113.76 25.4996 113.109 25.5298 112.459 25.4727C111.808 25.4134 111.167 25.2163 110.536 24.8815C110.082 24.5982 109.658 24.6821 109.264 25.1323C108.448 26.0584 107.595 26.9452 106.708 27.7929C106.251 28.2173 105.772 28.5712 105.271 28.8545C104.771 29.1389 104.226 29.3002 103.636 29.3382C101.91 29.3002 101.228 28.252 101.59 26.1939C101.61 26.1043 101.635 26.0348 101.666 25.9833C102.163 24.3115 102.82 22.8031 103.636 21.4594C104.451 20.1156 105.485 18.9947 106.736 18.0955C107.565 17.4897 108.454 17.2579 109.405 17.4013C109.652 17.464 109.889 17.5793 110.118 17.7461C110.396 17.9141 110.51 18.184 110.46 18.5569C110.438 18.6733 110.393 18.7741 110.327 18.857C110.259 18.941 110.19 19.0205 110.118 19.0944C110.076 19.1604 110.022 19.2064 109.956 19.2332C109.888 19.2579 109.819 19.2691 109.747 19.2691C109.063 19.2959 108.474 19.5445 107.982 20.0126C107.493 20.4818 107.046 21.0115 106.643 21.6027C106.189 22.2332 105.768 22.9274 105.379 23.6855C104.992 24.4447 104.675 25.3507 104.428 26.4044C105.337 25.7504 106.05 25.1009 106.567 24.4559C106.68 24.316 106.794 24.1872 106.909 24.0707C107 23.9576 107.093 23.8546 107.186 23.7617C107.642 23.2365 108.117 22.774 108.613 22.3731C109.182 21.9767 109.744 21.7774 110.302 21.7774C110.861 21.7774 111.404 22.0596 111.933 22.624C112.655 23.4213 113.357 23.7337 114.04 23.5601C114.721 23.3877 115.358 23.0887 115.948 22.6643C116.548 22.2141 117.075 21.9879 117.529 21.9879Z" fill="#222222"/>
</svg>
