<svg width="205" height="65" viewBox="0 0 205 65" fill="none" xmlns="http://www.w3.org/2000/svg">
<path d="M29.0288 34.524C29.1173 34.4834 29.1813 34.4427 29.2179 34.4021C29.6359 34.1313 30.1087 33.852 30.6334 33.5625C31.1581 33.2697 31.6294 33.1343 32.0489 33.1563C32.4714 33.1749 32.717 33.4847 32.7871 34.0839C32.7536 34.9776 31.8918 35.9255 30.2002 36.9276C28.5117 37.9297 26.4312 38.8827 23.9587 39.7849C21.4892 40.6888 19.1083 41.4082 16.8142 41.9448C14.5202 42.478 12.795 42.715 11.6404 42.6558C10.3256 42.5034 9.36465 41.9753 8.75453 41.0714C8.14136 40.1641 7.91257 38.964 8.0712 37.4693C8.3 35.8545 8.96045 34.2108 10.0541 32.5401C11.1477 30.8711 12.5922 29.5542 14.3859 28.5927C16.1797 27.6279 18.1717 27.3588 20.3651 27.787C20.7144 27.8276 21.0027 27.9749 21.2315 28.2271C21.3535 28.3219 21.4603 28.4539 21.5548 28.6198C21.6525 28.7823 21.6845 28.9516 21.6525 29.1276C21.6158 29.6524 21.3245 29.9875 20.78 30.1365C20.2385 30.2821 19.7138 30.3532 19.2059 30.3532C19.0991 30.3532 18.9862 30.3735 18.8642 30.4141C17.4808 30.6274 16.1248 31.516 14.7947 33.0818C13.4647 34.6442 12.7203 36.3386 12.5617 38.1667C12.5617 38.9436 13.2481 39.3144 14.6239 39.2771C15.9982 39.2365 17.6577 38.925 19.6025 38.3427C21.5457 37.7604 23.3928 37.1206 25.1423 36.4198C26.8949 35.7207 28.1899 35.0894 29.0288 34.524Z" fill="currentColor"/>
<path d="M55.5633 33.2376C55.7539 33.2782 55.8836 33.3443 55.9538 33.434C56.027 33.5203 56.1063 33.6896 56.1917 33.9418C56.2649 34.1957 56.1871 34.497 55.9599 34.8491C55.7311 35.1978 55.5206 35.4771 55.3253 35.6887C53.8885 37.1833 52.2091 38.0771 50.2857 38.3699C49.1784 38.546 48.0741 38.5917 46.9728 38.5053C45.87 38.4156 44.784 38.1177 43.7148 37.6116C42.946 37.1833 42.2276 37.3103 41.561 37.9907C40.1776 39.3906 38.7331 40.7312 37.2292 42.0126C36.4559 42.6542 35.6444 43.1891 34.7948 43.6173C33.9483 44.0473 33.0255 44.291 32.0249 44.3486C29.1009 44.291 27.9462 42.7066 28.5594 39.5954C28.593 39.46 28.6357 39.3551 28.6875 39.2772C29.5295 36.75 30.643 34.4699 32.0249 32.4387C33.4068 30.4074 35.1578 28.713 37.278 27.3538C38.6813 26.438 40.1883 26.0876 41.799 26.3043C42.2169 26.3991 42.6196 26.5734 43.007 26.8256C43.4783 27.0795 43.6721 27.4875 43.5866 28.0512C43.55 28.2272 43.4738 28.3795 43.3609 28.5048C43.2465 28.6318 43.129 28.7519 43.007 28.8637C42.9369 28.9635 42.8453 29.0329 42.7325 29.0736C42.6181 29.1108 42.5006 29.1277 42.3786 29.1277C41.2194 29.1684 40.2218 29.5441 39.389 30.2517C38.5593 30.9609 37.8027 31.7616 37.1194 32.6553C36.3506 33.6083 35.6368 34.6578 34.9779 35.8038C34.322 36.9514 33.7851 38.3208 33.3671 39.9137C34.9077 38.9251 36.1157 37.9434 36.9912 36.9684C37.1819 36.7568 37.3756 36.5621 37.5709 36.3861C37.7249 36.2151 37.882 36.0594 38.0407 35.9189C38.8125 35.125 39.6178 34.4259 40.4567 33.8199C41.4207 33.2207 42.374 32.9194 43.3182 32.9194C44.2654 32.9194 45.1867 33.346 46.082 34.1991C47.3053 35.4043 48.495 35.8766 49.6512 35.6142C50.8059 35.3535 51.8843 34.9016 52.8849 34.26C53.9007 33.5795 54.7945 33.2376 55.5633 33.2376Z" fill="currentColor"/>
<path d="M78.0513 33.2985C78.7133 33.4339 79.0793 33.8334 79.1495 34.4969C79.2227 35.1571 78.9177 35.824 78.2343 36.5011C77.5662 37.1477 76.9256 37.7503 76.3124 38.3089C74.7749 39.7088 73.1215 41.2068 71.3522 42.8047C69.9687 44.0472 68.6982 45.4166 67.5389 46.9146C66.6802 47.9252 66.0411 49.0711 65.6232 50.3542C65.1671 52.0232 64.3968 53.5196 63.3108 54.8433C62.6961 55.6185 61.9945 56.0925 61.2059 56.2651C60.4204 56.4412 59.5982 56.3938 58.741 56.1229C58.3216 56.0045 58.0058 55.7607 57.7953 55.3917C57.5833 55.0261 57.5391 54.608 57.6611 54.1391C57.803 53.4214 58.0485 52.7409 58.3993 52.1011C58.9073 51.2835 59.4503 50.4862 60.0284 49.711C60.065 49.6331 60.1168 49.5569 60.187 49.4808C62.2004 46.7013 62.3224 43.8525 60.5531 40.936C60.1138 40.2961 59.6318 39.6732 59.1071 39.0672C58.9485 38.8556 58.773 38.644 58.5824 38.4308C58.2682 38.0025 57.9357 37.5946 57.5818 37.2052C56.9351 36.4469 56.3036 35.6395 55.6904 34.7813C53.9577 32.0831 54.0721 29.4983 56.0321 27.0287C57.7313 24.7943 59.8514 23.2506 62.3895 22.3974C63.9667 21.893 65.492 22.0453 66.9654 22.8578C68.3809 23.716 69.0368 25.0381 68.9361 26.8256C68.7775 28.0308 68.2345 28.74 67.3071 28.9516C66.1143 29.2055 65.2647 28.7959 64.7568 27.7261C64.5982 27.3029 64.4838 26.9339 64.4151 26.6224C64.345 26.294 64.2473 26.0401 64.1223 25.8641C64.0002 25.6881 63.8065 25.6339 63.5427 25.7016C63.2818 25.7693 62.8624 25.9978 62.2858 26.3855C61.395 26.9728 60.6232 27.743 59.9735 28.6943C58.924 30.0942 58.863 31.5905 59.7904 33.1834C60.1077 33.6895 60.457 34.155 60.8398 34.5782C61.2623 35.1063 61.665 35.6243 62.0479 36.1287C62.8197 36.9818 63.5518 37.8552 64.2443 38.749C64.9352 39.6427 65.5347 40.6042 66.0441 41.6334C66.43 41.5572 67.1027 41.156 68.0636 40.4282C69.0276 39.6969 70.074 38.8506 71.2057 37.8891C72.336 36.9276 73.3656 36.0593 74.2929 35.2823C75.0617 34.6019 75.6047 34.1347 75.922 33.8808C76.1813 33.6692 76.5046 33.5084 76.8921 33.4C77.278 33.2917 77.6639 33.2578 78.0513 33.2985Z" fill="currentColor"/>
<path d="M100.797 33.2376C100.988 33.2782 101.117 33.3443 101.188 33.434C101.261 33.5203 101.34 33.6896 101.426 33.9418C101.499 34.1957 101.421 34.497 101.194 34.8491C100.965 35.1978 100.754 35.4771 100.559 35.6887C99.1224 37.1833 97.443 38.0771 95.5196 38.3699C94.4123 38.546 93.3079 38.5917 92.2067 38.5053C91.1039 38.4156 90.0179 38.1177 88.9486 37.6116C88.1799 37.1833 87.4615 37.3103 86.7949 37.9907C85.4115 39.3906 83.967 40.7312 82.4631 42.0126C81.6898 42.6542 80.8783 43.1891 80.0287 43.6173C79.1822 44.0473 78.2594 44.291 77.2588 44.3486C74.3348 44.291 73.1801 42.7066 73.7933 39.5954C73.8268 39.46 73.8696 39.3551 73.9214 39.2772C74.7634 36.75 75.8768 34.4699 77.2588 32.4387C78.6407 30.4074 80.3917 28.713 82.5119 27.3538C83.9152 26.438 85.4222 26.0876 87.0329 26.3043C87.4508 26.3991 87.8535 26.5734 88.2409 26.8256C88.7122 27.0795 88.9059 27.4875 88.8205 28.0512C88.7839 28.2272 88.7077 28.3795 88.5948 28.5048C88.4804 28.6318 88.3629 28.7519 88.2409 28.8637C88.1707 28.9635 88.0792 29.0329 87.9664 29.0736C87.852 29.1108 87.7345 29.1277 87.6125 29.1277C86.4533 29.1684 85.4557 29.5441 84.6229 30.2517C83.7931 30.9609 83.0366 31.7616 82.3533 32.6553C81.5845 33.6083 80.8707 34.6578 80.2117 35.8038C79.5559 36.9514 79.019 38.3208 78.601 39.9137C80.1416 38.9251 81.3496 37.9434 82.2251 36.9684C82.4158 36.7568 82.6095 36.5621 82.8047 36.3861C82.9588 36.2151 83.1159 36.0594 83.2745 35.9189C84.0463 35.125 84.8517 34.4259 85.6906 33.8199C86.6546 33.2207 87.6079 32.9194 88.5521 32.9194C89.4993 32.9194 90.4206 33.346 91.3159 34.1991C92.5392 35.4043 93.7289 35.8766 94.8851 35.6142C96.0398 35.3535 97.1181 34.9016 98.1187 34.26C99.1346 33.5795 100.028 33.2376 100.797 33.2376Z" fill="currentColor"/>
<path d="M158.433 33.1834C158.782 33.1428 159.061 33.1969 159.269 33.3459C159.479 33.4914 159.586 33.7758 159.586 34.199C159.655 34.4157 159.583 34.7305 159.372 35.1401C159.165 35.5464 158.924 35.9391 158.652 36.3183C158.384 36.6941 158.178 36.9683 158.036 37.1443C156.758 38.6441 155.349 39.6326 153.808 40.1099C152.266 40.5839 150.611 40.6448 148.842 40.2928C147.983 40.1167 147.239 39.7342 146.609 39.1417C145.977 38.551 145.427 37.8265 144.955 36.9683C144.919 36.9107 144.884 36.8633 144.851 36.8261C144.305 35.8562 143.711 34.8947 143.064 33.9417C142.747 33.4728 142.443 33.2375 142.155 33.2375C141.865 33.2375 141.529 33.4525 141.148 33.8808C139.989 35.086 138.99 36.4368 138.152 37.9297C137.347 39.2534 136.189 39.8459 134.681 39.7105C133.561 39.6343 132.828 38.9928 132.478 37.7875C132.405 37.4947 132.368 37.1917 132.368 36.8803C132.283 35.3467 131.981 34.8998 131.465 35.5396C130.948 36.1812 130.436 37.0563 129.928 38.1667C129.736 38.5967 129.509 39.0232 129.245 39.4464C128.979 39.9745 128.709 40.4925 128.433 40.9969C128.168 41.5572 127.878 42.1107 127.561 42.6558C127.019 43.5089 126.267 43.9862 125.303 44.0844C123.534 44.2605 122.535 43.4056 122.308 41.5183C122.237 39.8848 122.176 38.2615 122.125 36.65C122.091 35.9103 122.057 35.1605 122.021 34.4021C121.984 33.7623 121.966 33.092 121.966 32.3912C121.881 31.2097 121.819 30.0332 121.783 28.8636C121.751 27.33 122.39 26.504 123.705 26.3855C125.12 26.25 125.941 26.8933 126.17 28.3151C126.328 29.5982 126.452 30.8796 126.542 32.161C126.542 33.0141 126.623 33.5338 126.786 33.7183C126.952 33.9045 127.115 33.9451 127.274 33.8401C127.433 33.7318 127.591 33.5693 127.75 33.3526C127.75 33.3526 127.75 33.3357 127.75 33.2985C127.904 33.0818 128.052 32.8685 128.195 32.6553C128.581 32.056 128.991 31.5025 129.428 30.9964C130.582 29.886 131.931 29.4188 133.473 29.5948C134.823 29.7133 135.787 30.4327 136.365 31.7547C136.555 32.2388 136.86 32.3066 137.28 31.9579C137.702 31.6058 138.268 31.1978 138.976 30.7323C139.687 30.2685 140.472 29.9469 141.331 29.7709C143.36 29.3071 145.092 29.8894 146.529 31.5178C147.176 32.3167 147.806 33.1935 148.421 34.1448C148.473 34.2227 148.534 34.3073 148.604 34.4021C148.762 34.656 148.921 34.9286 149.08 35.2214C149.185 35.4753 149.315 35.736 149.47 36.0068C150.12 36.9412 150.803 37.4202 151.52 37.4422C152.24 37.4609 152.954 37.212 153.662 36.6974C154.372 36.1795 155.06 35.5989 155.724 34.9573C156.249 34.4529 156.734 34.0297 157.182 33.6912C157.629 33.3526 158.045 33.1834 158.433 33.1834Z" fill="currentColor"/>
<path d="M176.952 33.2985C177.174 33.434 177.278 33.6625 177.263 33.9824C177.246 34.304 177.159 34.5901 177 34.8423C175.808 36.8058 174.529 38.5459 173.163 40.0626C171.799 41.5793 170.298 42.7134 168.66 43.4616C167.025 44.2064 165.147 44.4146 163.029 44.0845C161.609 43.8323 160.539 43.2974 159.819 42.4798C159.103 41.6639 158.57 40.5078 158.221 39.0131C157.64 36.662 157.507 34.2431 157.824 31.7548C158.088 30.316 158.894 29.5661 160.24 29.5069C161.448 29.5069 162.104 30.1095 162.211 31.3147C162.248 32.3083 162.248 33.2901 162.211 34.26C162.211 34.3954 162.211 34.5224 162.211 34.6392C162.141 37.3035 162.53 39.1265 163.376 40.11C164.226 41.0901 165.335 41.3474 166.702 40.8819C168.068 40.413 169.522 39.3432 171.064 37.6725C171.255 37.4558 171.494 37.1647 171.784 36.7991C172.077 36.4301 172.397 36.0593 172.748 35.6886C173.236 35.125 173.639 34.6493 173.956 34.26C174.915 33.1902 175.914 32.8703 176.952 33.2985ZM159.899 25.2209C158.833 25.1448 158.221 24.5032 158.062 23.298C157.94 22.3636 158.07 21.4699 158.453 20.6168C158.802 19.8771 159.371 19.3709 160.161 19.1001C160.95 18.8293 161.694 18.9071 162.394 19.3303C162.658 19.4894 162.847 19.7095 162.962 19.9939C163.074 20.2748 163.114 20.5017 163.077 20.6777C163.044 23.7483 161.985 25.2616 159.899 25.2209Z" fill="currentColor"/>
<path d="M199.119 33.2376C199.31 33.2782 199.44 33.3443 199.51 33.434C199.583 33.5203 199.662 33.6896 199.748 33.9418C199.821 34.1957 199.743 34.497 199.516 34.8491C199.287 35.1978 199.077 35.4771 198.881 35.6887C197.445 37.1833 195.765 38.0771 193.842 38.3699C192.735 38.546 191.63 38.5917 190.529 38.5053C189.426 38.4156 188.34 38.1177 187.271 37.6116C186.502 37.1833 185.784 37.3103 185.117 37.9907C183.734 39.3906 182.289 40.7312 180.785 42.0126C180.012 42.6542 179.201 43.1891 178.351 43.6173C177.504 44.0473 176.582 44.291 175.581 44.3486C172.657 44.291 171.502 42.7066 172.116 39.5954C172.149 39.46 172.192 39.3551 172.244 39.2772C173.086 36.75 174.199 34.4699 175.581 32.4387C176.963 30.4074 178.714 28.713 180.834 27.3538C182.237 26.438 183.744 26.0876 185.355 26.3043C185.773 26.3991 186.176 26.5734 186.563 26.8256C187.034 27.0795 187.228 27.4875 187.143 28.0512C187.106 28.2272 187.03 28.3795 186.917 28.5048C186.803 28.6318 186.685 28.7519 186.563 28.8637C186.493 28.9635 186.401 29.0329 186.289 29.0736C186.174 29.1108 186.057 29.1277 185.935 29.1277C184.776 29.1684 183.778 29.5441 182.945 30.2517C182.115 30.9609 181.359 31.7616 180.676 32.6553C179.907 33.6083 179.193 34.6578 178.534 35.8038C177.878 36.9514 177.341 38.3208 176.923 39.9137C178.464 38.9251 179.672 37.9434 180.547 36.9684C180.738 36.7568 180.932 36.5621 181.127 36.3861C181.281 36.2151 181.438 36.0594 181.597 35.9189C182.369 35.125 183.174 34.4259 184.013 33.8199C184.977 33.2207 185.93 32.9194 186.874 32.9194C187.822 32.9194 188.743 33.346 189.638 34.1991C190.861 35.4043 192.051 35.8766 193.207 35.6142C194.362 35.3535 195.44 34.9016 196.441 34.26C197.457 33.5795 198.351 33.2376 199.119 33.2376Z" fill="currentColor"/>
</svg>
