<svg width="20" height="20" viewBox="0 0 20 20" fill="none" xmlns="http://www.w3.org/2000/svg">
<path fill-rule="evenodd" clip-rule="evenodd" d="M10 1.875C5.51269 1.875 1.875 5.51269 1.875 10C1.875 14.4873 5.51269 18.125 10 18.125C14.4873 18.125 18.125 14.4873 18.125 10C18.125 5.51269 14.4873 1.875 10 1.875ZM3.125 10C3.125 6.20304 6.20304 3.125 10 3.125C13.797 3.125 16.875 6.20304 16.875 10C16.875 13.797 13.797 16.875 10 16.875C9.2856 16.875 8.59666 16.766 7.94887 16.5638C8.30104 16.0108 8.58112 15.415 8.78226 14.7909L9.21273 13.1432C9.39058 13.397 9.62901 13.6024 9.90639 13.7407C10.1838 13.8789 10.4913 13.9457 10.801 13.9349C12.9138 13.9349 14.3981 12.0151 14.3981 9.63021C14.3981 7.33933 12.5278 5.62735 10.1281 5.62735C7.13955 5.62735 5.55127 7.6362 5.55127 9.81823C5.55127 10.8375 6.09059 12.0992 6.95647 12.505C7.08512 12.5643 7.16923 12.505 7.18903 12.4109C7.20881 12.317 7.32743 11.8425 7.3819 11.6246C7.39045 11.5901 7.3905 11.5536 7.38187 11.5191C7.37325 11.4846 7.3563 11.4527 7.33252 11.4263C7.00539 10.9655 6.83222 10.413 6.83772 9.84792C6.83601 9.44227 6.91663 9.04048 7.0747 8.66689C7.23277 8.29329 7.465 7.95566 7.75735 7.67442C8.04969 7.39318 8.39606 7.17418 8.77549 7.03069C9.15492 6.88719 9.55952 6.82218 9.96481 6.83959C10.3444 6.81738 10.7245 6.87455 11.0808 7.00743C11.4371 7.14032 11.7617 7.346 12.0341 7.61137C12.3064 7.87674 12.5205 8.19596 12.6626 8.54868C12.8047 8.90139 12.8717 9.27984 12.8593 9.6599C12.8593 11.5302 11.9093 12.8315 10.6823 12.8315C10.5237 12.8437 10.3646 12.8175 10.2184 12.7551C10.0721 12.6928 9.94305 12.5961 9.84208 12.4733C9.74111 12.3505 9.67122 12.2051 9.63832 12.0496C9.60543 11.8941 9.61049 11.7329 9.65309 11.5797C9.72341 11.2878 9.81623 10.9873 9.90667 10.6943C10.0708 10.1629 10.227 9.65674 10.227 9.27396C10.2442 9.14963 10.2342 9.02307 10.1979 8.90295C10.1615 8.78282 10.0997 8.67197 10.0165 8.57798C9.93331 8.484 9.83081 8.4091 9.71599 8.35843C9.60117 8.30775 9.47676 8.28249 9.35127 8.28438C8.65856 8.28438 8.09944 9.00678 8.09944 9.96667C8.09429 10.3059 8.15826 10.6426 8.28746 10.9563L7.47106 14.4198C7.37104 15.0743 7.37083 15.7401 7.47041 16.3947C6.92827 16.1801 6.41993 15.8985 5.95559 15.5601C5.14135 14.9653 4.46098 14.1956 3.9691 13.2994C3.77559 12.9469 3.61427 12.5802 3.48583 12.2038C3.25186 11.512 3.125 10.7708 3.125 10Z" fill="#FFF8F0"/>
</svg>
